<svg version="1.2" xmlns="http://www.w3.org/2000/svg" viewBox="0 0 1080 1080" width="1080" height="1080">
	<title>debate-me-logo</title>
	<style>
		.s0 { fill: #000000 } 
	</style>
	<path id="D" class="s0" d="m355.5 199.1q42.8 0 83.4-2 41.7-2.1 104.3-2.1 61.5 0 119.8 20.8 58.4 20.9 106.4 62.6 47.9 41.7 76.1 106.3 28.1 63.6 28.1 150.1 0 91.7-30.2 158.4-30.3 65.7-79.2 108.4-49 41.7-106.4 62.6-57.3 19.8-111.5 19.8-51.1 0-93.8-2.1-41.7-2.1-93.8-2.1l77.1-76.1q43.8 13.6 84.4 17.8 40.7 4.1 74 4.1 40.7-26 66.8-68.8 26-42.7 38.5-94.8 12.5-53.2 12.5-107.4 0-57.3-13.5-111.5-12.5-54.2-38.6-98-25-43.8-62.5-68.8-36.5-26.1-83.4-26.1-24 0-41.7 3.1-17.7 3.2-36.5 8.4-1 59.4-1 124 0 64.7 0 126.2 0 76.1 0 150.1 1 74 2 144.9l42.8 44.8-11.5 30.2q-17.7-1-32.3-1-14.6 0-32.3 0-16.7-1.1-44.8-1.1-52.2-1-88.6 1.1-36.5 1-68.8 2.1l-13.6-39.7 91.7-20.8q2.1-99 4.2-174.1 2.1-75 2.1-136.5 0-70.9-2.1-135.6-1-65.6-3.1-115.7l-91.8-25 12.6-40.6q31.2 1 53.1 2.1 21.9 1 44.8 2 24 0 56.3 0z"/>
	<path id="Shape 1" fill-rule="evenodd" class="s0" d="m157.7 360.1c0 20.9-28.7 37.8-64.1 37.8-35.5 0-64.1-16.9-64.1-37.8v-93.4c0-62.6 86.1-113.3 192.3-113.3h614.3l-147-86.7c-25-14.8-25-38.8 0-53.5 25-14.8 65.7-14.8 90.7 0l256.4 151.1c25.1 14.8 25.1 38.8 0 53.5l-256.4 151.2c-25 14.8-65.7 14.8-90.7 0-25-14.8-25-38.7 0-53.5l147-86.6h-614.3c-35.5 0-64.1 16.9-64.1 37.8z"/>
	<path id="Shape 1 copy" fill-rule="evenodd" class="s0" d="m924.8 721.9c0-20.9 28.6-37.8 64.1-37.8 35.5 0 64.1 16.9 64.1 37.8v93.4c0 62.6-86.1 113.3-192.3 113.3h-614.3l147 86.7c25 14.8 25 38.8 0 53.5-25.1 14.8-65.7 14.8-90.8 0l-256.4-151.1c-25-14.8-25-38.8 0-53.5l256.4-151.2c25.1-14.8 65.7-14.8 90.8 0 25 14.8 25 38.7 0 53.5l-147 86.6h614.3c35.5 0 64.1-16.9 64.1-37.8z"/>
</svg>